<svg width="1509" height="1038" viewBox="0 0 1509 1038" fill="none" xmlns="http://www.w3.org/2000/svg">
<g opacity="0.4">
<path d="M963.666 882.526C894.369 835.667 852.343 769.108 849.857 707.738C847.443 648.127 891.245 604.07 951.296 577.056C1010.76 550.307 1087.23 539.227 1165.03 565.954C1241.15 592.105 1293.25 649.723 1330.77 707.421C1368.32 765.185 1396.31 829.021 1366.65 876.079C1336.96 923.18 1261.45 934.462 1186.91 935.654C1111.7 936.859 1029.61 927.119 963.666 882.526Z" fill="url(#paint0_linear_623_2324)"/>
<g opacity="0.9">
<path d="M691.098 782.397C590.226 723.674 553.301 643.987 513.405 569.856C476.061 500.467 440.935 429.29 473.663 378.381C508.432 324.299 589.057 295.499 690.485 294.407C796.988 293.261 919.151 318.242 1030.94 372.383C1147.77 428.971 1256.74 507.24 1296.45 587.893C1334.27 664.698 1270.46 713.702 1224.45 765.395C1179.87 815.484 1141.03 873.055 1039.77 876.283C932.585 879.7 798.624 844.994 691.098 782.397Z" fill="url(#paint1_linear_623_2324)"/>
</g>
<path opacity="0.8" d="M462.292 591.381C411.381 544.239 378.509 477.097 389.665 425.68C399.869 378.638 463.314 371.976 512.948 357.908C546.795 348.317 584.031 346.725 624.103 359.239C660.278 370.536 687.363 398.482 718.818 422.196C767.776 459.109 838.966 483.209 855.662 533.821C873.553 588.051 840.883 635.164 797.021 659.27C755.196 682.254 693.992 665.91 636.517 654.253C575.906 641.958 510.382 635.911 462.292 591.381Z" fill="#0500FF"/>
<path d="M320.486 528.188C215.289 472.626 123.809 382.669 107.21 303.861C92.0296 231.761 181.111 204.622 245.129 170.346C288.782 146.97 342.561 134.46 409.57 141.957C470.06 148.726 527.861 182.508 589.377 208.864C685.127 249.885 805.369 265.959 862.435 335.976C923.577 410.997 905.751 489.335 856.674 536.829C809.88 582.113 709.314 574.741 617.247 573.257C520.158 571.69 419.845 580.668 320.486 528.188Z" fill="url(#paint2_linear_623_2324)"/>
</g>
<defs>
<linearGradient id="paint0_linear_623_2324" x1="1000.28" y1="760.595" x2="1635.57" y2="778.372" gradientUnits="userSpaceOnUse">
<stop stop-color="#FFE8C7"/>
<stop offset="1" stop-color="#FFCD1B"/>
</linearGradient>
<linearGradient id="paint1_linear_623_2324" x1="814.038" y1="515.466" x2="1595.75" y2="443.278" gradientUnits="userSpaceOnUse">
<stop stop-color="#CEFA70"/>
<stop offset="1" stop-color="#F20202"/>
</linearGradient>
<linearGradient id="paint2_linear_623_2324" x1="292.489" y1="484.988" x2="922.608" y2="355.147" gradientUnits="userSpaceOnUse">
<stop stop-color="#4DD65B"/>
<stop offset="1" stop-color="#53E5FA"/>
</linearGradient>
</defs>
</svg>
